<?xml version="1.0" encoding="UTF-8" standalone="no"?>
<!DOCTYPE svg PUBLIC "-//W3C//DTD SVG 1.1//EN" "http://www.w3.org/Graphics/SVG/1.1/DTD/svg11.dtd">
<svg xmlns="http://www.w3.org/2000/svg" version="1.1" viewBox="0.00 0.00 1576.00 259.00">
<path fill="#1ec396" d="
  M 273.78 0.00
  L 275.27 0.00
  C 276.36 2.57 277.56 5.32 278.40 8.00
  Q 279.75 12.30 284.47 13.03
  Q 287.99 13.57 291.28 13.93
  A 1.33 1.32 23.2 0 1 292.15 16.10
  Q 289.57 19.20 286.02 21.58
  C 281.04 24.94 287.13 32.19 284.82 36.46
  A 1.93 1.92 -56.4 0 1 281.93 37.05
  C 279.25 34.90 273.52 30.38 269.96 32.40
  Q 265.78 34.78 261.69 36.29
  Q 260.96 36.56 260.28 36.19
  A 1.05 1.05 0.0 0 1 259.76 35.04
  Q 260.61 31.28 261.99 27.08
  C 263.50 22.49 257.30 17.29 254.35 14.51
  A 1.49 1.48 -26.5 0 1 255.21 11.96
  Q 260.25 11.40 265.51 11.12
  Q 267.63 11.01 268.79 8.37
  Q 270.85 3.70 273.78 0.00
  Z"
/>
<path fill="#ffffff" d="
  M 1477.83 113.37
  Q 1479.66 130.21 1483.46 140.94
  C 1485.06 145.47 1487.53 149.66 1491.53 152.57
  Q 1496.05 155.88 1500.03 159.84
  C 1507.33 167.11 1518.89 165.32 1527.77 162.61
  C 1541.51 158.42 1554.65 150.94 1565.67 142.14
  C 1568.20 140.13 1573.38 138.05 1574.75 142.86
  C 1577.19 151.40 1568.05 156.54 1562.36 160.39
  Q 1559.48 162.33 1556.47 163.74
  Q 1547.34 168.03 1540.17 172.33
  C 1528.64 179.25 1518.00 181.57 1504.37 179.18
  C 1494.49 177.45 1485.87 173.15 1477.94 166.40
  Q 1471.68 161.07 1465.65 155.36
  Q 1461.03 150.99 1454.94 153.76
  Q 1443.40 159.01 1434.56 168.47
  Q 1427.68 175.83 1420.79 184.13
  Q 1417.33 188.29 1412.96 192.30
  C 1410.06 194.95 1406.79 194.38 1404.38 191.52
  C 1400.97 187.48 1399.37 183.22 1402.11 178.56
  C 1406.77 170.63 1413.75 164.58 1419.96 157.89
  C 1429.49 147.63 1437.78 136.65 1445.94 125.37
  Q 1450.77 118.67 1454.29 111.88
  Q 1456.18 108.23 1456.22 103.92
  C 1456.36 87.24 1453.12 71.15 1444.10 57.22
  Q 1441.62 53.39 1437.67 50.61
  C 1427.28 43.28 1412.66 54.09 1405.86 61.64
  Q 1398.87 69.40 1391.04 74.13
  Q 1385.84 77.28 1380.84 74.72
  C 1375.05 71.76 1381.36 61.58 1383.97 58.61
  Q 1400.82 39.46 1425.20 30.12
  Q 1429.16 28.60 1433.43 28.63
  Q 1444.57 28.68 1455.21 31.06
  C 1460.09 32.14 1463.86 38.25 1465.64 42.45
  C 1471.78 56.95 1476.74 71.06 1477.23 86.02
  Q 1477.27 87.31 1477.92 88.44
  A 1.30 1.29 -36.4 0 0 1479.93 88.74
  Q 1493.51 75.98 1507.37 59.58
  C 1510.25 56.17 1511.45 52.15 1514.28 48.81
  C 1520.28 41.74 1526.86 35.71 1531.23 27.09
  C 1531.71 26.14 1532.60 25.27 1533.30 24.44
  A 1.27 1.27 0.0 0 1 1534.47 24.00
  C 1543.45 25.41 1545.92 33.23 1541.53 40.57
  Q 1539.70 43.64 1537.50 46.54
  C 1534.35 50.69 1531.80 55.25 1529.25 59.77
  Q 1528.20 61.65 1523.32 66.82
  Q 1512.28 78.51 1500.41 90.76
  C 1493.11 98.29 1485.41 104.98 1478.19 112.33
  Q 1477.76 112.76 1477.83 113.37
  Z"
/>
<rect fill="#1ec396" x="-1.78" y="-31.96" transform="translate(305.26,59.38) rotate(-30.9)" width="3.56" height="63.92" rx="1.72"/>
<rect fill="#1ec396" x="-1.86" y="-47.10" transform="translate(224.43,74.00) rotate(38.5)" width="3.72" height="94.20" rx="1.84"/>
<path fill="#1ec396" d="
  M 842.39 131.80
  A 0.59 0.59 0.0 0 0 842.76 132.69
  Q 846.50 133.48 849.93 134.38
  C 863.02 137.80 874.02 148.06 875.41 162.24
  C 876.61 174.55 873.58 185.92 863.92 193.86
  C 854.15 201.88 844.09 204.32 832.01 204.64
  Q 797.76 205.54 763.50 204.35
  Q 760.92 204.26 758.54 203.37
  A 1.47 1.44 84.6 0 1 757.81 202.75
  Q 756.95 201.29 757.19 199.49
  Q 758.57 189.17 758.70 181.24
  Q 759.36 139.31 759.06 99.01
  C 758.96 85.74 758.87 73.78 757.17 60.99
  Q 756.70 57.51 760.01 57.28
  Q 791.20 55.16 827.40 56.46
  Q 835.40 56.74 841.26 57.99
  C 850.73 60.00 860.92 64.52 867.52 71.38
  C 875.29 79.47 876.34 90.97 875.03 101.86
  C 872.95 119.20 858.33 126.13 843.56 130.81
  Q 843.17 130.93 842.81 131.28
  Q 842.57 131.52 842.39 131.80
  Z
  M 796.18 150.77
  A 0.66 0.66 0.0 0 1 795.62 149.85
  C 799.50 141.09 807.78 136.39 816.24 132.86
  Q 825.67 128.92 837.04 122.98
  Q 856.34 112.89 854.09 90.77
  Q 853.27 82.67 848.16 74.78
  C 844.15 68.61 834.76 65.25 828.06 63.77
  Q 806.86 59.10 783.20 61.47
  Q 781.55 61.63 781.55 63.23
  Q 781.51 129.87 781.40 196.57
  Q 781.40 198.81 783.66 199.00
  Q 809.61 201.17 832.49 192.93
  Q 843.94 188.80 849.76 179.33
  C 853.71 172.91 854.72 165.01 852.13 158.03
  Q 846.31 142.33 830.32 140.00
  C 824.53 139.16 817.35 139.96 812.36 142.61
  Q 806.24 145.86 799.29 150.03
  Q 797.89 150.87 796.18 150.77
  Z"
/>
<path fill="#1ec396" d="
  M 566.08 188.66
  Q 567.12 188.39 567.19 187.30
  C 567.45 183.32 566.80 179.55 566.89 175.58
  Q 567.92 131.80 567.26 89.90
  Q 567.17 84.31 565.79 78.43
  Q 563.57 68.97 561.01 59.55
  A 2.13 2.13 0.0 0 1 562.97 56.86
  Q 566.96 56.68 571.16 56.92
  Q 575.26 57.15 574.64 61.59
  Q 574.00 66.15 572.92 70.65
  Q 572.45 72.64 572.46 74.83
  Q 572.78 129.71 572.05 187.92
  Q 571.98 193.91 572.63 201.25
  Q 572.83 203.57 570.63 203.87
  Q 562.36 204.99 551.76 203.90
  Q 548.95 203.61 547.39 202.14
  Q 546.02 200.86 544.31 198.19
  Q 539.33 190.45 535.08 183.48
  C 525.44 167.67 515.47 152.36 505.38 136.38
  Q 486.36 106.28 467.86 78.01
  Q 466.53 75.98 464.70 74.09
  A 0.88 0.88 0.0 0 0 463.23 74.46
  C 462.51 76.93 462.01 79.28 462.03 81.85
  Q 462.46 122.52 462.25 156.35
  C 462.17 169.74 463.08 181.77 466.55 193.49
  Q 467.63 197.11 468.74 200.69
  C 469.11 201.90 469.50 203.61 467.71 203.93
  Q 462.47 204.87 457.30 203.67
  Q 455.39 203.23 455.48 201.36
  C 455.69 197.17 456.18 192.98 456.28 188.82
  Q 457.68 132.17 457.49 112.25
  Q 457.39 101.15 457.42 89.05
  Q 457.42 88.99 457.87 77.95
  Q 458.26 68.69 456.96 59.82
  Q 456.61 57.44 459.13 57.32
  Q 465.74 57.00 472.25 57.02
  C 476.39 57.03 480.74 57.98 483.24 61.55
  C 491.95 74.01 499.94 87.81 508.23 100.61
  C 517.21 114.45 526.39 128.45 535.03 142.48
  Q 545.34 159.21 560.89 181.28
  Q 562.88 184.11 564.90 188.12
  A 1.04 1.03 -20.2 0 0 566.08 188.66
  Z"
/>
<path fill="#1ec396" d="
  M 982.50 195.24
  Q 981.63 195.10 980.26 195.80
  C 964.67 203.75 946.57 206.99 929.11 204.20
  C 917.84 202.40 908.37 197.04 902.52 187.52
  C 897.58 179.48 896.43 171.43 896.42 161.97
  Q 896.39 122.24 896.25 79.45
  C 896.23 73.46 895.79 67.79 895.24 61.89
  Q 894.77 56.83 899.86 56.79
  Q 908.39 56.72 916.17 56.93
  Q 920.83 57.06 920.47 61.84
  C 919.82 70.43 919.26 79.10 919.20 88.02
  Q 918.91 130.13 919.46 176.17
  C 919.59 186.82 922.82 196.50 934.17 198.57
  C 950.94 201.63 969.16 194.25 984.51 185.50
  Q 988.23 183.38 988.26 178.80
  Q 988.75 107.20 986.67 60.23
  Q 986.53 57.14 989.62 57.07
  Q 998.52 56.85 1007.24 56.89
  Q 1010.59 56.90 1010.55 60.25
  Q 1009.81 122.88 1010.23 184.00
  Q 1010.28 191.53 1011.18 202.13
  A 1.98 1.97 87.9 0 1 1009.20 204.27
  L 989.05 204.08
  A 2.38 2.38 0.0 0 1 986.85 202.57
  Q 985.72 199.74 984.56 196.87
  A 2.69 2.68 -6.5 0 0 982.50 195.24
  Z"
/>
<path fill="#1ec396" d="
  M 1054.57 183.14
  Q 1053.77 184.11 1053.94 185.44
  C 1054.60 190.48 1055.83 197.24 1054.39 202.08
  C 1053.90 203.74 1052.04 204.28 1050.51 204.29
  Q 1042.61 204.33 1034.12 204.28
  Q 1030.51 204.26 1030.58 200.62
  Q 1031.74 134.27 1030.87 60.28
  Q 1030.84 57.34 1033.75 57.09
  Q 1037.34 56.78 1051.01 56.74
  Q 1055.51 56.73 1055.38 60.82
  Q 1053.85 108.79 1054.95 154.60
  Q 1055.13 161.71 1057.31 171.25
  Q 1058.44 176.18 1061.25 179.21
  C 1067.31 185.74 1080.18 186.60 1088.29 185.15
  Q 1104.50 182.25 1118.25 180.25
  Q 1131.82 178.27 1141.75 179.54
  Q 1147.42 180.27 1149.51 186.67
  Q 1151.40 192.48 1153.13 198.03
  Q 1153.57 199.45 1153.25 201.11
  Q 1153.15 201.63 1152.71 201.93
  Q 1151.30 202.87 1149.57 202.48
  Q 1139.50 200.21 1130.19 201.51
  Q 1119.11 203.06 1108.27 203.90
  C 1094.34 204.97 1081.47 203.39 1069.45 195.70
  Q 1064.29 192.40 1061.75 189.10
  Q 1059.17 185.76 1056.16 183.03
  A 1.11 1.10 40.8 0 0 1054.57 183.14
  Z"
/>
<path fill="#1ec396" d="
  M 610.71 129.94
  Q 610.56 130.39 610.76 131.52
  C 613.43 146.01 620.89 158.94 631.89 168.25
  C 658.17 190.47 698.68 194.80 722.69 167.26
  C 727.56 161.67 731.09 155.26 735.55 149.25
  A 1.54 1.54 0.0 0 1 737.66 148.91
  C 743.47 152.97 726.12 175.48 722.72 179.57
  Q 712.80 191.49 698.49 197.54
  Q 665.93 211.30 634.48 197.25
  C 620.77 191.13 609.47 179.87 602.05 166.91
  Q 596.36 156.95 594.46 147.44
  C 588.58 117.88 597.19 85.85 624.39 69.45
  C 643.76 57.76 665.25 54.89 687.46 58.83
  Q 710.83 62.98 733.84 59.40
  Q 735.64 59.12 737.68 59.77
  Q 738.14 59.92 738.31 60.37
  Q 739.05 62.31 738.20 64.20
  Q 735.46 70.26 732.33 76.70
  Q 728.97 83.63 720.91 83.66
  Q 699.79 83.72 673.23 79.22
  Q 659.36 76.87 642.14 75.84
  C 632.93 75.29 624.56 76.40 617.58 82.29
  C 610.14 88.57 608.53 98.31 609.41 107.78
  Q 610.48 119.41 620.66 124.88
  C 631.47 130.69 640.69 130.94 652.79 128.38
  Q 672.55 124.20 688.39 118.70
  C 701.06 114.30 708.98 121.86 713.66 132.72
  A 1.90 1.90 0.0 0 1 712.47 135.29
  Q 691.87 141.56 670.29 146.37
  C 655.66 149.64 638.61 148.66 625.99 140.00
  Q 619.25 135.38 611.95 129.57
  Q 611.06 128.86 610.71 129.94
  Z"
/>
<path fill="#1ec396" d="
  M 1272.24 150.23
  C 1271.45 150.77 1271.07 151.98 1270.12 152.50
  Q 1268.03 153.65 1265.80 154.66
  Q 1260.48 157.06 1255.14 161.15
  Q 1251.24 164.14 1246.31 169.77
  C 1237.35 180.00 1226.52 191.29 1216.87 198.71
  Q 1207.93 205.58 1194.89 203.95
  C 1173.07 201.22 1173.06 175.50 1179.08 160.47
  C 1183.62 149.11 1189.20 138.47 1196.45 127.88
  Q 1208.93 109.66 1215.81 97.66
  Q 1224.37 82.72 1230.15 70.69
  Q 1232.35 66.11 1233.54 61.02
  Q 1234.45 57.15 1238.69 57.14
  Q 1246.98 57.12 1255.45 57.10
  Q 1259.92 57.08 1261.59 60.96
  Q 1271.17 83.23 1281.46 108.34
  Q 1292.93 136.33 1308.70 173.46
  Q 1310.36 177.36 1311.94 181.58
  C 1314.47 188.32 1318.16 194.49 1321.33 201.01
  A 2.14 2.14 0.0 0 1 1320.51 203.78
  C 1319.20 204.57 1317.42 204.42 1315.90 204.45
  Q 1309.52 204.55 1302.99 204.40
  Q 1298.14 204.29 1296.24 200.05
  Q 1285.42 175.95 1275.05 151.07
  A 1.89 1.89 0.0 0 0 1272.24 150.23
  Z
  M 1229.43 84.63
  Q 1225.42 93.01 1219.91 102.80
  Q 1211.53 117.71 1200.12 136.66
  C 1194.44 146.07 1189.13 156.16 1187.02 166.24
  C 1185.64 172.82 1185.01 186.12 1195.95 184.74
  C 1205.35 183.56 1210.68 178.39 1217.41 172.14
  Q 1229.10 161.27 1240.07 148.98
  C 1247.30 140.89 1256.17 135.06 1266.52 143.14
  Q 1268.42 144.63 1270.47 146.01
  A 0.56 0.55 13.2 0 0 1271.33 145.48
  Q 1270.46 138.92 1267.97 132.77
  Q 1255.60 102.22 1242.19 72.04
  Q 1240.94 69.23 1239.22 66.63
  A 1.05 1.04 44.3 0 0 1237.46 66.65
  Q 1236.51 68.17 1235.88 69.79
  Q 1232.90 77.37 1229.43 84.63
  Z"
/>
<path fill="#1ec396" d="
  M 341.73 98.66
  L 349.23 100.26
  A 1.77 1.77 0.0 0 1 349.86 103.45
  Q 346.79 105.56 344.05 107.54
  Q 341.74 109.21 342.00 112.67
  Q 342.28 116.55 342.12 120.09
  A 1.36 1.36 0.0 0 1 340.15 121.24
  Q 336.77 119.53 334.11 117.08
  C 331.14 114.35 325.47 117.31 322.53 118.91
  A 2.39 2.38 43.6 0 1 320.36 118.96
  Q 318.79 118.20 319.60 116.46
  C 321.32 112.77 323.50 108.35 320.76 104.58
  Q 318.66 101.70 315.79 98.84
  Q 315.14 98.19 315.35 97.30
  Q 315.65 96.00 317.03 96.01
  Q 321.34 96.03 325.03 95.95
  C 329.01 95.87 331.76 90.83 333.48 87.63
  A 1.78 1.78 0.0 0 1 336.75 87.97
  L 339.22 96.33
  A 3.35 3.34 -2.1 0 0 341.73 98.66
  Z"
/>
<path fill="#1ec396" d="
  M 185.87 122.86
  Q 188.75 121.19 192.19 120.19
  A 1.82 1.82 0.0 0 1 194.38 122.64
  L 191.68 129.15
  A 2.13 2.11 36.2 0 0 192.03 131.33
  Q 194.64 134.38 196.39 138.09
  Q 196.96 139.29 195.63 139.21
  C 191.10 138.91 186.06 138.21 183.62 143.07
  Q 182.93 144.45 181.92 145.57
  A 1.62 1.62 0.0 0 1 180.56 146.12
  C 179.29 146.03 178.26 145.24 178.20 143.89
  C 178.10 141.16 177.27 137.19 174.12 136.36
  Q 171.24 135.60 168.60 134.61
  A 1.80 1.80 0.0 0 1 168.36 131.35
  Q 171.20 129.79 174.18 128.30
  C 175.49 127.65 176.04 126.32 175.89 124.91
  C 175.60 122.31 175.55 119.41 176.58 116.97
  Q 176.86 116.31 177.41 116.77
  L 184.53 122.74
  Q 185.16 123.27 185.87 122.86
  Z"
/>
<rect fill="#1ec396" x="-33.00" y="-2.00" transform="translate(283.07,137.70) rotate(-32.1)" width="66.00" height="4.00" rx="1.89"/>
<path fill="#1ec396" d="
  M 66.11 161.77
  C 66.00 160.88 65.19 159.98 64.45 159.51
  Q 60.57 157.10 57.33 153.99
  A 1.18 1.18 0.0 0 1 57.73 152.04
  Q 61.25 150.68 64.91 150.18
  C 70.15 149.46 70.76 143.96 71.47 139.84
  A 1.72 1.72 0.0 0 1 74.39 138.93
  Q 76.39 140.95 77.77 143.76
  C 78.50 145.24 79.81 147.02 81.51 147.40
  Q 85.61 148.31 90.38 147.70
  A 1.40 1.40 0.0 0 1 91.81 149.73
  Q 90.39 152.54 88.09 154.79
  C 84.38 158.42 87.22 164.93 88.81 168.85
  A 1.28 1.28 0.0 0 1 87.21 170.55
  Q 83.09 169.15 79.19 167.57
  C 75.58 166.11 72.42 169.46 69.94 171.68
  Q 69.00 172.51 67.90 172.70
  A 1.89 1.89 0.0 0 1 65.73 170.47
  Q 66.63 166.00 66.11 161.77
  Z"
/>
<rect fill="#1ec396" x="-11.29" y="-1.69" transform="translate(208.79,146.32) rotate(36.0)" width="22.58" height="3.38" rx="1.64"/>
<rect fill="#1ec396" x="-12.88" y="-1.92" transform="translate(158.16,150.18) rotate(-30.7)" width="25.76" height="3.84" rx="1.83"/>
<path fill="#1ec396" d="
  M 237.55 153.69
  C 240.96 152.45 244.16 150.62 247.77 149.95
  A 1.16 1.16 0.0 0 1 249.14 151.22
  Q 248.66 155.42 246.79 159.04
  C 245.45 161.62 246.10 164.01 247.80 166.19
  Q 250.33 169.44 253.23 172.37
  A 1.63 1.63 0.0 0 1 252.09 175.15
  L 241.92 175.29
  A 3.29 3.29 0.0 0 0 239.08 176.98
  L 234.46 185.27
  A 1.90 1.89 50.7 0 1 231.00 184.92
  Q 229.48 180.11 227.55 175.29
  C 227.03 173.98 225.70 173.07 224.30 172.97
  Q 219.50 172.63 214.59 170.74
  A 1.32 1.31 -86.1 0 1 213.79 169.82
  Q 213.54 168.75 214.50 168.12
  Q 218.77 165.30 222.60 162.62
  A 3.71 3.71 0.0 0 0 224.18 159.38
  L 223.63 148.53
  A 1.24 1.24 0.0 0 1 225.60 147.46
  Q 229.00 149.92 232.36 152.39
  C 233.80 153.45 235.75 154.34 237.55 153.69
  Z"
/>
<path fill="#1ec396" d="
  M 126.47 174.75
  L 119.49 178.53
  A 1.58 1.58 0.0 0 1 117.20 177.50
  C 116.54 174.67 119.02 171.73 118.54 168.77
  C 118.00 165.45 114.23 163.31 111.72 161.41
  Q 109.16 159.48 112.34 159.08
  C 115.93 158.63 119.26 158.37 122.58 156.79
  Q 123.04 156.57 123.26 156.11
  Q 124.24 154.03 125.12 151.56
  Q 127.47 145.00 130.13 151.45
  Q 130.91 153.35 131.67 155.18
  C 133.37 159.26 137.70 158.15 141.16 158.73
  Q 145.41 159.44 142.00 162.08
  C 139.20 164.24 135.69 166.65 136.60 170.81
  Q 137.35 174.20 137.82 177.81
  A 0.80 0.80 0.0 0 1 137.13 178.71
  Q 136.05 178.84 135.11 178.32
  Q 131.97 176.60 128.41 174.74
  A 2.07 2.06 -45.1 0 0 126.47 174.75
  Z"
/>
<ellipse fill="#1ec396" cx="0.00" cy="0.00" transform="translate(100.13,158.93) rotate(13.6)" rx="8.25" ry="1.91"/>
<rect fill="#1ec396" x="-1.92" y="-27.07" transform="translate(43.92,200.55) rotate(34.3)" width="3.84" height="54.14" rx="1.88"/>
<path fill="#1ec396" d="
  M 7.79 238.02
  Q 6.69 234.06 6.42 230.25
  A 1.20 1.20 0.0 0 1 8.18 229.10
  Q 11.28 230.73 14.13 232.70
  C 15.72 233.79 17.89 233.58 19.45 232.56
  Q 22.14 230.81 25.44 229.99
  A 0.94 0.93 89.8 0 1 26.57 231.12
  Q 25.57 235.31 24.91 239.09
  C 24.45 241.74 28.36 245.14 30.06 246.92
  A 1.49 1.48 -22.5 0 1 29.02 249.43
  C 25.98 249.50 21.71 249.00 19.80 251.86
  Q 18.40 253.98 17.33 256.18
  Q 14.76 261.48 12.69 255.97
  L 10.82 251.01
  A 2.44 2.43 85.1 0 0 9.01 249.48
  L 1.69 248.04
  A 1.82 1.82 0.0 0 1 0.43 245.42
  C 1.37 243.62 5.08 241.75 6.78 240.66
  A 2.38 2.37 66.1 0 0 7.79 238.02
  Z"
/>
</svg>
